# xmcd
#
# Track frame offsets: 
#        150
#        13194
#        28196
#        41382
#        53986
#        66133
#        79481
#        90875
#        103050
#        116378
#        130775
#        142139
#        155137
#        166983
#        182264
#        195515
#        209217
#        224165
#        236884
#        248118
#
# Disc length: 3492 seconds
#
# Revision: 3
# Processed by: cddbd v1.5.2PL0 Copyright (c) Steve Scherf et al.
# Submitted via: ExactAudioCopy v0.99pb4
#
DISCID=280da214
DTITLE=Dinah Washington - Give Me Back My Tears - CD 1
DYEAR=2005
DGENRE=Vocal
TTITLE0=Evil Girl Blues
TTITLE1=Blow Top Blues
TTITLE2=When A Woman Loves A Man
TTITLE3=Joy Juice
TTITLE4=Oo Wee Walkie Talkie
TTITLE5=The Man I Love
TTITLE6=You Didn't Want Me Then
TTITLE7=A Slick Chick
TTITLE8=West Side Baby
TTITLE9=Long John Blues
TTITLE10=Laughing Boy
TTITLE11=Baby Get Lost
TTITLE12=Give Me Back My Tears
TTITLE13=My Kind Of Man
TTITLE14=Only A Moment Ago
TTITLE15=Harbor Lights
TTITLE16=Time Out For Tears
TTITLE17=I Wanna Be Loved
TTITLE18=What A Difference A Day Makes
TTITLE19=Please Send Me Someone To Love
EXTD=YEAR: 2005
EXTT0=
EXTT1=
EXTT2=
EXTT3=
EXTT4=
EXTT5=
EXTT6=
EXTT7=
EXTT8=
EXTT9=
EXTT10=
EXTT11=
EXTT12=
EXTT13=
EXTT14=
EXTT15=
EXTT16=
EXTT17=
EXTT18=
EXTT19=
PLAYORDER=
